<?xml version="1.0" encoding="UTF-8" standalone="no"?>
<svg
   id="visual"
   viewBox="0 0 900 600"
   width="900"
   height="600"
   version="1.1"
   sodipodi:docname="spacer.svg"
   inkscape:version="1.1 (c68e22c387, 2021-05-23)"
   xmlns:inkscape="http://www.inkscape.org/namespaces/inkscape"
   xmlns:sodipodi="http://sodipodi.sourceforge.net/DTD/sodipodi-0.dtd"
   xmlns="http://www.w3.org/2000/svg"
   xmlns:svg="http://www.w3.org/2000/svg">
  <defs
     id="defs11" />
  <sodipodi:namedview
     id="namedview9"
     pagecolor="#505050"
     bordercolor="#eeeeee"
     borderopacity="1"
     inkscape:pageshadow="0"
     inkscape:pageopacity="0"
     inkscape:pagecheckerboard="0"
     showgrid="false"
     inkscape:zoom="1.2133333"
     inkscape:cx="417.44507"
     inkscape:cy="243.95605"
     inkscape:window-width="874"
     inkscape:window-height="1008"
     inkscape:window-x="-11"
     inkscape:window-y="3"
     inkscape:window-maximized="0"
     inkscape:current-layer="visual" />
  <rect
     x="0"
     y="0"
     width="900"
     height="600"
     fill="#000000"
     id="rect2" />
  <path
     d="m 0,253.70376 6.5,-3.3382 C 13,247.02735 26,240.35094 39,237.61968 c 13,-2.73127 26,-1.51737 39,-1.51737 13,0 26,-1.2139 39.2,1.39598 13.1,2.67056 26.5,9.1042 39.6,9.1042 13.2,0 26.2,-6.43364 39.2,-5.21974 13,1.2139 26,10.07532 39,12.6245 13,2.54916 26,-1.3353 39,-6.37294 13,-5.03766 26,-11.34991 39,-8.37587 13,2.91334 26,15.05228 39,20.93967 13,5.82668 26,5.4625 39,5.03766 13,-0.42489 26,-0.78905 39.2,-2.73127 13.1,-1.94224 26.5,-5.34114 39.6,-5.58391 13.2,-0.18209 26.2,2.85266 39.2,-1.57806 13,-4.49141 26,-16.38757 39,-20.27204 13,-3.82375 26,0.42488 39,-0.9711 13,-1.45667 26,-8.49725 39,-10.43948 13,-1.94223 26,1.33528 39,6.49432 13,5.15906 26,12.19963 39,16.56965 13,4.37002 26,5.94807 39.2,6.55503 13.1,0.60694 26.5,0.24277 39.6,-2.42779 13.2,-2.60988 26.2,-7.46544 39.2,-10.68227 13,-3.27751 26,-4.85556 39,-5.88738 13,-1.03179 26,-1.39597 32.5,-1.63875 l 6.5,-0.18208 V 0 h -6.5 C 887,0 874,0 861,0 848,0 835,0 822,0 809,0 796,0 782.8,0 769.7,0 756.3,0 743.2,0 730,0 717,0 704,0 691,0 678,0 665,0 652,0 639,0 626,0 613,0 600,0 587,0 574,0 561,0 548,0 535,0 522,0 509,0 496,0 483,0 469.8,0 456.7,0 443.3,0 430.2,0 417,0 404,0 391,0 378,0 365,0 352,0 339,0 326,0 313,0 300,0 287,0 274,0 261,0 248,0 235,0 222,0 209,0 196,0 183,0 170,0 156.8,0 143.7,0 130.3,0 117.2,0 104,0 91,0 78,0 65,0 52,0 39,0 26,0 13,0 6.5,0 H 0 Z"
     fill="#166534"
     id="path4"
     style="stroke-width:0.779066" />
  <path
     d="m 0,93.994526 6.5,5.178145 C 13,104.29453 26,114.65081 39,115.7765 c 13,1.12568 26,-6.97923 39,-9.68089 13,-2.70162 26,-0.11257 39.2,2.36394 13.1,2.42023 26.5,4.67159 39.6,3.26449 13.2,-1.40711 26.2,-6.47268 39.2,-9.11803 13,-2.58907 26,-2.814208 39,-4.221324 13,-1.407091 26,-3.996164 39,-3.43333 13,0.562841 26,4.277605 39,5.515854 13,1.23825 26,-0.11257 39,3.82732 13,3.9399 26,13.17049 39,16.88524 13,3.77104 26,2.08251 39.2,-3.09562 13.1,-5.12186 26.5,-13.78962 39.6,-18.01094 13.2,-4.221306 26.2,-3.996163 39.2,-1.463381 13,2.532781 26,7.373221 39,8.892901 13,1.51966 26,-0.39399 39,1.57595 13,1.96994 26,7.8235 39,5.347 13,-2.42022 26,-13.11422 39,-18.573776 13,-5.403272 26,-5.628415 39,-5.065566 13,0.562842 26,1.913652 39.2,2.251366 13.1,0.393981 26.5,-0.168853 39.6,1.4071 13.2,1.632243 26.2,5.346998 39.2,10.412566 13,5.06557 26,11.48196 39,9.84973 13,-1.57596 26,-11.14426 32.5,-15.928417 L 900,93.994526 V 0 h -6.5 C 887,0 874,0 861,0 848,0 835,0 822,0 809,0 796,0 782.8,0 769.7,0 756.3,0 743.2,0 730,0 717,0 704,0 691,0 678,0 665,0 652,0 639,0 626,0 613,0 600,0 587,0 574,0 561,0 548,0 535,0 522,0 509,0 496,0 483,0 469.8,0 456.7,0 443.3,0 430.2,0 417,0 404,0 391,0 378,0 365,0 352,0 339,0 326,0 313,0 300,0 287,0 274,0 261,0 248,0 235,0 222,0 209,0 196,0 183,0 170,0 156.8,0 143.7,0 130.3,0 117.2,0 104,0 91,0 78,0 65,0 52,0 39,0 26,0 13,0 6.5,0 H 0 Z"
     fill="#fbbf24"
     id="path6"
     style="stroke-width:0.750229" />
</svg>
