<?xml version="1.0" encoding="UTF-8" standalone="no"?>
<svg
   id="visual"
   viewBox="0 0 900 600"
   width="900"
   height="600"
   version="1.1"
   sodipodi:docname="spacer yellow2.svg"
   inkscape:version="1.1 (c68e22c387, 2021-05-23)"
   xmlns:inkscape="http://www.inkscape.org/namespaces/inkscape"
   xmlns:sodipodi="http://sodipodi.sourceforge.net/DTD/sodipodi-0.dtd"
   xmlns="http://www.w3.org/2000/svg"
   xmlns:svg="http://www.w3.org/2000/svg">
  <sodipodi:namedview
     id="namedview528"
     pagecolor="#505050"
     bordercolor="#eeeeee"
     borderopacity="1"
     inkscape:pageshadow="0"
     inkscape:pageopacity="0"
     inkscape:pagecheckerboard="0"
     showgrid="false"
     inkscape:zoom="1.2133333"
     inkscape:cx="449.58792"
     inkscape:cy="450.00001"
     inkscape:window-width="1920"
     inkscape:window-height="974"
     inkscape:window-x="-11"
     inkscape:window-y="-11"
     inkscape:window-maximized="1"
     inkscape:current-layer="visual"
     inkscape:object-nodes="false"
     inkscape:object-paths="true"
     inkscape:snap-bbox="false"
     inkscape:snap-smooth-nodes="true" />
  <defs
     id="defs11" />
  <path
     d="m 0,470 c 52.573678,0.83442 62.278646,61.71821 127.95384,13.64707 37.12812,-25.86098 80.44877,102.03663 121.32088,100.23421 40.87211,-1.80242 93.07015,-99.03213 145.02199,-98.19185 51.95183,0.84027 98.95598,63.43968 139.42857,92.58668 40.47259,29.147 56.79397,-58.22005 89.80219,-104.11412 33.00822,-45.89407 58.11436,93.16851 94.48352,104.53683 36.36916,11.36832 61.7896,-200.30156 96.57143,-140.08581 C 849.36425,498.82876 888.4371,512.63691 900,470 911.5629,427.36309 900,0 900,0 H 893.5 861 822 782.8 743.2 704 665 626 587 548 509 469.8 430.2 391 352 313 274 235 196 156.8 117.2 78 39 6.5 L 0,1.6483517 Z"
     fill="#fbbf24"
     id="path6"
     style="stroke-width:1.67921"
     sodipodi:nodetypes="cczzzzzzzccccccccccccccccccccccccccc" />
</svg>
