<?xml version="1.0" encoding="UTF-8" standalone="no"?>
<svg
   id="visual"
   viewBox="0 0 900 600"
   width="900"
   height="600"
   version="1.1"
   sodipodi:docname="spacer yellow2.svg"
   inkscape:version="1.1 (c68e22c387, 2021-05-23)"
   xmlns:inkscape="http://www.inkscape.org/namespaces/inkscape"
   xmlns:sodipodi="http://sodipodi.sourceforge.net/DTD/sodipodi-0.dtd"
   xmlns="http://www.w3.org/2000/svg"
   xmlns:svg="http://www.w3.org/2000/svg">
  <sodipodi:namedview
     id="namedview528"
     pagecolor="#505050"
     bordercolor="#eeeeee"
     borderopacity="1"
     inkscape:pageshadow="0"
     inkscape:pageopacity="0"
     inkscape:pagecheckerboard="0"
     showgrid="false"
     inkscape:zoom="1.2133333"
     inkscape:cx="449.58792"
     inkscape:cy="509.34067"
     inkscape:window-width="1920"
     inkscape:window-height="974"
     inkscape:window-x="-11"
     inkscape:window-y="-11"
     inkscape:window-maximized="1"
     inkscape:current-layer="visual"
     inkscape:object-nodes="false"
     inkscape:object-paths="true"
     inkscape:snap-bbox="false"
     inkscape:snap-smooth-nodes="true" />
  <defs
     id="defs11" />
  <path
     d="M -45.329672,470.9009 1.6483516,553.48125 C 9.6309326,567.51344 105.66089,457.58497 142.78901,431.72399 179.91713,405.86301 233.12789,588.9804 274,587.17798 314.87211,585.37556 342.34487,484.84915 394.29671,485.68943 446.24854,486.5297 468.52741,559.8434 509,588.9904 c 40.47259,29.147 81.51925,-68.93434 114.52747,-114.82841 33.00822,-45.89407 58.11436,93.16851 94.48352,104.53683 36.36916,11.36832 61.7896,-200.30156 96.57143,-140.08581 C 849.36425,498.82876 888.4371,513.53781 900,470.9009 911.5629,428.26399 900,0 900,0 H 893.5 861 822 782.8 743.2 704 665 626 587 548 509 469.8 430.2 391 352 313 274 235 196 156.8 117.2 78 39 6.5 l -53.478023,1.6483517 z"
     fill="#fbbf24"
     id="path6"
     style="stroke-width:1.67921"
     sodipodi:nodetypes="cszzzzzzzzccccccccccccccccccccccccccc" />
</svg>
