<?xml version="1.0" encoding="UTF-8" standalone="no"?>
<svg
   id="visual"
   viewBox="0 0 900 600"
   width="900"
   height="600"
   version="1.1"
   sodipodi:docname="spacer green2.svg"
   inkscape:version="1.1 (c68e22c387, 2021-05-23)"
   xmlns:inkscape="http://www.inkscape.org/namespaces/inkscape"
   xmlns:sodipodi="http://sodipodi.sourceforge.net/DTD/sodipodi-0.dtd"
   xmlns="http://www.w3.org/2000/svg"
   xmlns:svg="http://www.w3.org/2000/svg">
  <defs
     id="defs11" />
  <sodipodi:namedview
     id="namedview9"
     pagecolor="#505050"
     bordercolor="#eeeeee"
     borderopacity="1"
     inkscape:pageshadow="0"
     inkscape:pageopacity="0"
     inkscape:pagecheckerboard="0"
     showgrid="false"
     inkscape:zoom="1.2133333"
     inkscape:cx="418.26924"
     inkscape:cy="380.76924"
     inkscape:window-width="1920"
     inkscape:window-height="974"
     inkscape:window-x="-11"
     inkscape:window-y="-11"
     inkscape:window-maximized="1"
     inkscape:current-layer="visual" />
  <path
     d="m 0,575.28585 v 0 c 32.020252,-37.10117 94.03749,-83.30426 129.56264,-69.40918 40.19535,23.1496 48.30549,63.04925 84.83296,81.52926 26.57256,11.58877 40.6876,-74.03916 61.51649,-64.47304 13,6.60615 63.08791,53.72927 76.08791,67.07923 23.62311,18.33548 76.17645,-70.73179 98.8044,-78.05946 47.55694,10.04141 65.75148,109.17818 103.78901,81.50692 41.73887,-0.46096 66.05988,-104.31103 93.0989,-81.3722 27.1207,28.49752 66.37489,58.99864 95.50769,62.23511 58.21255,-8.13174 101.0697,-102.69685 150.3,-46.79358 l 6.5,-0.41289 V 0 H 893.5 861 822 782.8 743.2 704 665 626 587 548 509 469.8 430.2 391 352 313 274 235 196 156.8 117.2 78 39 6.5 0 Z"
     fill="#166534"
     id="path4"
     style="stroke-width:1.17315"
     sodipodi:nodetypes="ccccccccccccccccccccccccccccccccccccccc" />
</svg>
